General
      Complete name : Casablanca.1942.BRRip.H264.AAC.Gopo.mp4
      Format : MPEG-4
      Format profile : Base Media
      Codec ID : isom
      File size : 1.57 GiB
      Duration : 1h 42mn
      Overall bit rate : 2 192 Kbps
      Encoded date : UTC 2009-12-10 14:12:16
      Tagged date : UTC 2009-12-10 14:12:16
      Writing application : Yamb 2.1.0.0 [http://yamb.unite-video.com]
   Video #1
      ID : 1
      Format : AVC
      Format/Info : Advanced Video Codec
      Format profile : High@L4.1
      Format settings, CABAC : Yes
      Format settings, ReFrames : 2 frames
      Codec ID : avc1
      Codec ID/Info : Advanced Video Coding
      Duration : 1h 42mn
      Bit rate mode : Variable
      Bit rate : 1 941 Kbps
      Maximum bit rate : 7 981 Kbps
      Width : 976 pixels
      Height : 720 pixels
      Display aspect ratio : 4:3
      Frame rate mode : Constant
      Frame rate : 23.976 fps
      Resolution : 24 bits
      Colorimetry : 4:2:0
      Scan type : Progressive
      Bits/(Pixel*Frame) : 0.115
      Stream size : 1.39 GiB (89%)
      Writing library : x264 core 79 r1360 528c100
      Encoding settings : cabac=1 / ref=2 / deblock=1:0:0 / analyse=0x3:0x113 / me=umh / subme=8 / psy=1 / psy_rd=1.0:0.0 / mixed_ref=1 / me_range=16 / chroma_me=1 / trellis=2 / 8x8dct=1 / cqm=0 / deadzone=21,11 / chroma_qp_offset=-2 / threads=3 / nr=0 / decimate=1 / mbaff=0 / constrained_intra=0 / bframes=3 / b_pyramid=0 / b_adapt=2 / b_bias=0 / direct=3 / wpredb=1 / wpredp=2 / keyint=250 / keyint_min=25 / scenecut=40 / rc_lookahead=30 / rc=2pass / mbtree=1 / bitrate=1941 / ratetol=1.0 / qcomp=0.50 / qpmin=10 / qpmax=51 / qpstep=4 / cplxblur=20.0 / qblur=0.5 / vbv_maxrate=24000 / vbv_bufsize=24000 / ip_ratio=1.10 / aq=1:1.00
      Encoded date : UTC 2009-12-09 18:25:05
      Tagged date : UTC 2009-12-10 14:16:27
   Audio #2
      ID : 2
      Format : AAC
      Format/Info : Advanced Audio Codec
      Format version : Version 4
      Format profile : LC
      Format settings, SBR : No
      Format settings, PS : Yes
      Codec ID : 40
      Duration : 1h 42mn
      Bit rate mode : Variable
      Bit rate : 248 Kbps
      Maximum bit rate : 279 Kbps
      Channel(s) : 2 channels
      Channel positions : Front: L R
      Sampling rate : 48.0 KHz
      Resolution : 16 bits
      Stream size : 182 MiB (11%)
      Encoded date : UTC 2009-12-10 14:16:05
      Tagged date : UTC 2009-12-10 14:16:27
	Sample : YES
	Subtitle : English,Romanian

PLOT

In World War II Casablanca, Rick Blaine, exiled American and former freedom fighter, runs the most popular nightspot in town. The cynical lone wolf Blaine comes into the possession of two valuable letters of transit. When Nazi Major Strasser arrives in Casablanca, the sycophantic police Captain Renault does what he can to please him, including detaining Czech underground leader Victor Laszlo. Much to Rick's surprise, Lazslo arrives with Ilsa, Rick's one time love. Rick is very bitter towards Ilsa, who ran out on him in Paris, but when he learns she had good reason to, they plan to run off together again using the letters of transit. Well, that was their original plan....
Director: Michael Curtiz
CASTING
      
      Humphrey Bogart	... 	Rick Blaine
	Ingrid Bergman	... 	Ilsa Lund
	Paul Henreid	... 	Victor Laszlo
	Claude Rains	... 	Captain Renault
	Conrad Veidt	... 	Major Strasser
	Sydney Greenstreet	... 	Signor Ferrari
	Peter Lorre	... 	Ugarte
	S.Z. Sakall	... 	Carl (as S.K. Sakall)
	Madeleine Lebeau	... 	Yvonne
	Dooley Wilson	... 	Sam
	Joy Page	... 	Annina Brandel
	John Qualen	... 	Berger
	Leonid Kinskey	... 	Sascha
	Curt Bois	... 	Pickpocket

SOURCE: mhq-casablanca.1942.720p.x264.mkv

Notes: For best performance I suggest you to use KMPlayer(find it with google) for playback
I haven't tested the movies on a PS3 or Xbox or other devices than PC because I don't own one of them but feel free to test them if you have the oportunity.
